<?xml version="1.0" encoding="utf-8"?>
<!-- Generator: Adobe Illustrator 16.0.3, SVG Export Plug-In . SVG Version: 6.00 Build 0)  -->
<!DOCTYPE svg PUBLIC "-//W3C//DTD SVG 1.1//EN" "http://www.w3.org/Graphics/SVG/1.1/DTD/svg11.dtd">
<svg version="1.1" id="svg2443" xmlns:svg="http://www.w3.org/2000/svg"
	 xmlns="http://www.w3.org/2000/svg" xmlns:xlink="http://www.w3.org/1999/xlink" x="0px" y="0px" width="180.05px"
	 height="24.55px" viewBox="0 0 180.05 24.55" enable-background="new 0 0 180.05 24.55" xml:space="preserve">
<g id="g2452" transform="matrix(1.25,0,0,-1.25,-291.27031,921.2275)">
	<path id="path2492" d="M243.653,718.756h-9.507c-0.034,0.195-0.033,0.453,0.005,0.684c2.677,0.155,3.256,0.386,3.256,2.205v12.096
		c0,1.133-0.373,1.314-1.571,1.314h-1.091c-0.047,0.32-0.043,0.504,0.062,0.626c0.274,0.324,1.412,0.385,3.413,0.385h5.203
		c6.917,0,10.424-2.912,10.424-8.654C253.847,721.75,250.321,718.756,243.653,718.756z M240.45,734.877
		c-0.089,0-0.161-0.072-0.161-0.161v-12.891c0-1.72,0.7-1.98,3.108-1.98c3.628,0,7.337,0.841,7.337,7.08
		c0,5.128-2.715,7.952-7.645,7.952H240.45"/>
	<path id="path2494" d="M274.741,718.756h-8.176c-0.034,0.195-0.032,0.452,0.005,0.681c1.918,0.059,2.612,0.191,2.833,0.534
		c0.135,0.211,0.064,0.452-0.024,0.659l-1.615,3.87c-0.025,0.061-0.083,0.098-0.149,0.098h-6.611c-0.067,0-0.127-0.041-0.15-0.103
		l-1.051-2.794c-0.363-0.931-0.497-1.432-0.273-1.759c0.202-0.295,0.643-0.356,1.243-0.356h2.075
		c0.061-0.317,0.042-0.544-0.061-0.673c-0.083-0.106-0.231-0.158-0.451-0.158h-7.201c-0.035,0.198-0.032,0.462,0.007,0.695
		c1.927,0.257,2.212,0.482,2.91,2.132l5.074,12.02c0.85,1.987,1.143,2.286,2.234,2.286h0.862c0.091-0.529,0.281-0.98,0.658-1.804
		l5.919-13.503c0.311-0.734,0.663-0.995,2.019-0.995h0.455c0.053-0.325,0.029-0.553-0.072-0.677
		C275.117,718.807,274.967,718.756,274.741,718.756z M264.234,732.671c0,0-0.001,0-0.002,0c-0.065,0-0.124-0.04-0.148-0.1
		l-2.665-6.662c-0.02-0.05-0.014-0.106,0.015-0.152c0.03-0.044,0.08-0.07,0.134-0.07h5.458c0.054,0,0.104,0.027,0.134,0.072
		c0.03,0.045,0.035,0.102,0.014,0.15l-2.793,6.664C264.357,732.632,264.298,732.671,264.234,732.671"/>
	<path id="path2496" d="M285.017,718.756h-7.672c-0.048,0.195-0.045,0.463,0.011,0.697c1.986,0.33,2.569,0.618,2.569,1.781v12.252
		c0,1.067-0.373,1.236-1.571,1.236h-1.098c-0.045,0.265-0.018,0.454,0.081,0.578c0.134,0.168,0.425,0.254,0.864,0.254h7.203
		c0.033-0.192,0.032-0.484-0.003-0.685c-2.216-0.171-2.594-0.72-2.594-1.869v-12.175c0-1.066,0.44-1.237,1.494-1.237h1.254
		c0.073-0.345,0.063-0.562-0.027-0.678C285.448,718.806,285.281,718.756,285.017,718.756"/>
	<path id="path2498" d="M301.825,718.682l-7.028,13.902c-0.027,0.055-0.083,0.088-0.143,0.088c-0.011,0-0.022-0.001-0.032-0.003
		c-0.071-0.014-0.124-0.073-0.129-0.146l-0.82-11.506c-0.032-0.427-0.058-0.764,0.172-1.013c0.293-0.315,0.931-0.416,2.629-0.416
		h1.255c0.07-0.341,0.058-0.564-0.036-0.683c-0.079-0.102-0.235-0.15-0.477-0.15h-8.274c-0.037,0.228-0.037,0.458,0.001,0.684
		c2.744,0.166,3.072,0.708,3.155,1.886l1.051,12.043c0.027,0.296,0.037,0.605-0.169,0.839c-0.285,0.322-0.938,0.458-2.477,0.51
		c-0.043,0.24-0.014,0.428,0.088,0.561c0.141,0.182,0.431,0.274,0.86,0.274h5.078l6.389-12.24c0.029-0.053,0.082-0.086,0.143-0.086
		c0.001,0,0.002,0,0.003,0c0.06,0.001,0.115,0.036,0.142,0.091l5.876,12.235h5.849c0.053-0.227,0.052-0.457-0.002-0.684
		c-1.35-0.095-2.025-0.279-2.32-0.629c-0.216-0.257-0.205-0.572-0.175-0.848l1.23-12.505c0.087-0.95,0.645-1.042,2.472-1.281
		c0.03-0.386-0.002-0.597-0.105-0.712c-0.083-0.092-0.236-0.138-0.464-0.138h-8.924c-0.053,0.23-0.052,0.455,0.001,0.684l1.27,0.073
		c1.228,0.072,1.959,0.189,2.311,0.602c0.273,0.323,0.268,0.786,0.22,1.24l-1.15,11.173c-0.009,0.072-0.061,0.13-0.134,0.142
		c-0.009,0.002-0.018,0.002-0.027,0.002c-0.061,0-0.117-0.035-0.145-0.091l-6.151-12.917
		C302.422,718.832,302.253,718.696,301.825,718.682"/>
	<path id="path2500" d="M332.121,718.756h-12.236c-0.027,0.214-0.042,0.448-0.005,0.687c2.341,0.155,3.076,0.513,3.076,2.305v11.737
		c0,1.065-0.462,1.236-1.57,1.236h-1.098c-0.044,0.265-0.018,0.455,0.081,0.579c0.134,0.169,0.425,0.254,0.865,0.254h7.841
		c0.034-0.192,0.033-0.485-0.003-0.686c-2.575-0.153-3.233-0.411-3.233-2.202v-11.329c0-1.109,0.748-1.237,1.313-1.237h1.64
		c2.009,0,2.294,0.212,3.375,2.527l0.677,1.498c0.216-0.002,0.488-0.041,0.605-0.205c0.095-0.136,0.089-0.358-0.016-0.658
		C332.819,721.51,332.412,720.114,332.121,718.756"/>
	<path id="path2502" d="M350.138,718.757h-13.894c-0.051,0.227-0.05,0.457,0.002,0.683c2.664,0.157,3.239,0.385,3.239,2.206v11.84
		c0,1.067-0.366,1.238-1.544,1.238h-1.09c-0.03,0.289,0.004,0.469,0.109,0.59c0.136,0.16,0.433,0.241,0.878,0.241h12.05
		c0.072-1.012,0.211-2.158,0.4-3.325c0.059-0.361,0.02-0.623-0.114-0.781c-0.109-0.129-0.294-0.195-0.548-0.195
		c-0.016,0-0.036,0-0.055,0.002l-0.302,1.045c-0.447,1.601-1.039,2.089-2.537,2.089h-4.101c-0.089,0-0.161-0.072-0.161-0.161v-6.587
		c0-0.089,0.072-0.161,0.161-0.161h2.691c0.881,0,1.077,0.344,1.158,1.066l0.16,1.164h0.168c0.232,0,0.373-0.039,0.456-0.128
		c0.106-0.114,0.148-0.334,0.127-0.673c-0.077-1.596-0.078-3.303-0.006-4.949c-0.087-0.023-0.189-0.038-0.291-0.038
		c-0.108,0-0.208,0.014-0.297,0.042c-0.33,1.927-0.678,2.274-1.475,2.274h-2.691c-0.089,0-0.161-0.072-0.161-0.161v-4.51
		c0-1.015,0.308-1.469,2.134-1.469h2.204c2.01,0,2.294,0.213,3.375,2.528l0.675,1.497c0.209-0.003,0.472-0.042,0.591-0.207
		c0.1-0.139,0.1-0.36,0-0.659C350.846,721.542,350.427,720.106,350.138,718.757"/>
	<path id="path2504" d="M373.232,718.346c-2.433,0-3.933,0.554-5.738,2.115c-0.973,0.852-1.825,1.885-2.4,2.904
		c-0.668,1.2-0.776,1.312-2.396,1.312h-1.717c-0.089,0-0.161-0.073-0.161-0.161v-3.767c0-0.9,0.387-1.159,1.725-1.159h1.16
		c0.027-0.373-0.005-0.577-0.109-0.689c-0.086-0.097-0.247-0.143-0.488-0.143h-7.935c-0.023,0.171-0.042,0.43-0.003,0.685
		c2.175,0.161,2.769,0.464,2.769,2.127v11.84c0,1.124-0.484,1.314-1.57,1.314h-1.102c-0.052,0.254-0.03,0.445,0.066,0.58
		c0.13,0.185,0.423,0.297,0.867,0.329c1.225,0.102,2.725,0.102,6.345,0.102c4.681,0,7.477-2.124,7.477-5.682
		c0-2.052-1.225-3.744-3.361-4.645c-0.052-0.02-0.089-0.067-0.098-0.12c-0.009-0.055,0.009-0.109,0.051-0.147
		c0.02-0.017,1.936-1.78,2.902-2.569c3.33-2.673,4.527-2.973,6.711-2.983c0.038-0.233-0.005-0.423-0.127-0.581
		C375.76,718.568,374.794,718.346,373.232,718.346z M360.98,734.569c-0.089,0-0.161-0.072-0.161-0.161v-8.406
		c0-0.089,0.072-0.161,0.161-0.161h1.23c2.403,0,4.75,0.311,4.75,4.03c0,3.162-1.67,4.698-5.106,4.698H360.98"/>
	<path id="path2506" d="M235.837,734.896h-1.23c-0.18,1.102-0.077,1.332,3.613,1.332h5.203c7.381,0,10.584-3.332,10.584-8.816
		c0-5.279-3.024-8.816-10.354-8.816h-9.636c-0.077,0.255-0.077,0.666,0,0.999c2.743,0.153,3.229,0.334,3.229,2.051v12.097
		C237.246,734.741,236.99,734.896,235.837,734.896z M250.573,726.925c0,4.921-2.563,7.791-7.484,7.791h-2.639v-12.891
		c0-1.564,0.564-1.819,2.947-1.819C247.779,720.006,250.573,721.414,250.573,726.925"/>
	<path id="path2508" d="M266.36,736.048c0.077-0.564,0.256-1,0.667-1.897l5.92-13.506c0.282-0.666,0.564-0.898,1.871-0.898h0.589
		c0.154-0.742,0-1.152-0.666-1.152h-8.304c-0.077,0.255-0.077,0.666,0,0.999c2.794,0.077,3.076,0.308,2.794,0.973l-1.615,3.87
		h-6.612l-1.051-2.793c-0.589-1.512-0.589-1.898,0.82-1.898h2.204c0.18-0.742,0-1.152-0.64-1.152h-7.33
		c-0.077,0.255-0.077,0.666,0,0.999c1.974,0.256,2.204,0.411,2.896,2.051l5.074,12.019c0.846,1.974,1.179,2.384,2.384,2.384H266.36z
		 M267.027,725.848l-2.794,6.664l-2.665-6.664H267.027"/>
	<path id="path2510" d="M285.531,735.714c0.077-0.23,0.077-0.743,0-0.999c-2.23-0.154-2.564-0.641-2.564-1.717v-12.173
		c0-0.897,0.257-1.077,1.333-1.077h1.384c0.18-0.742,0.103-1.152-0.666-1.152h-7.791c-0.103,0.255-0.103,0.666,0,0.999
		c2.05,0.334,2.537,0.589,2.537,1.641v12.25c0,0.923-0.231,1.076-1.41,1.076h-1.23c-0.154,0.667,0,1.153,1.077,1.153H285.531"/>
	<path id="path2512" d="M315.054,735.714c0.103-0.332,0.103-0.666,0-0.999c-2.384-0.154-2.537-0.564-2.46-1.307l1.23-12.507
		c0.077-0.819,0.488-0.895,2.461-1.153c0.077-0.742,0-1.152-0.717-1.152h-9.047c-0.102,0.333-0.102,0.666,0,0.999l1.384,0.077
		c2.152,0.128,2.511,0.411,2.382,1.666l-1.152,11.175l-6.15-12.917c-0.462-0.923-0.667-1.077-1.256-1.077l-7.074,13.993
		l-0.82-11.507c-0.077-0.998-0.077-1.256,2.64-1.256h1.384c0.179-0.742,0.077-1.152-0.641-1.152h-8.406
		c-0.077,0.333-0.077,0.666,0,0.999c2.819,0.153,3.05,0.666,3.126,1.742l1.052,12.045c0.076,0.82-0.078,1.103-2.615,1.179
		c-0.154,0.59,0,1.153,1.077,1.153h5.176l6.433-12.327l5.922,12.327H315.054"/>
	<path id="path2514" d="M329.201,735.714c0.077-0.23,0.077-0.743,0-0.999c-2.691-0.154-3.202-0.384-3.202-2.05v-11.329
		c0-0.845,0.436-1.077,1.152-1.077h1.64c1.897,0,2.152,0.129,3.23,2.435l0.717,1.588c0.744,0.027,1.127-0.28,0.847-1.075
		c-0.539-1.537-1-3.025-1.334-4.613h-12.507c-0.051,0.333-0.076,0.666,0,0.999c2.486,0.153,3.052,0.487,3.052,2.153v11.737
		c0,0.923-0.334,1.076-1.411,1.076h-1.23c-0.153,0.667,0,1.153,1.077,1.153H329.201"/>
	<g id="g2516" transform="translate(0.9431409,-0.7545127)">
		<g>
			<g id="g2518">
				<path id="path2524" d="M349.095,736.469c0.077-1.153,0.23-2.357,0.409-3.459c0.128-0.795-0.18-1.23-0.998-1.153l-0.334,1.153
					c-0.436,1.563-0.974,1.974-2.383,1.974h-4.102v-6.588h2.692c0.768,0,0.922,0.257,0.998,0.924l0.18,1.306h0.308
					c0.512,0,0.795-0.179,0.742-0.973c-0.077-1.615-0.077-3.384,0-5.049c-0.23-0.103-0.614-0.128-0.896,0
					c-0.334,1.998-0.666,2.229-1.332,2.229h-2.692v-4.51c0-0.923,0.231-1.308,1.974-1.308h2.204c1.897,0,2.153,0.129,3.23,2.435
					l0.717,1.588c0.744,0.027,1.102-0.306,0.845-1.075c-0.513-1.461-0.999-3.025-1.333-4.613h-14.146
					c-0.102,0.333-0.102,0.666,0,0.999c2.716,0.153,3.202,0.334,3.202,2.051v11.84c0,0.923-0.23,1.076-1.384,1.076h-1.23
					c-0.102,0.667,0,1.153,1.128,1.153H349.095"/>
				<path id="path2526" d="M355.424,735.316h-1.23c-0.18,0.667,0,1.153,1.05,1.23c1.23,0.103,2.769,0.103,6.356,0.103
					c4.92,0,7.637-2.332,7.637-5.843c0-2.153-1.333-3.896-3.46-4.793c0,0,1.922-1.769,2.896-2.563
					c3.383-2.716,4.511-2.948,6.74-2.948c0.232-0.897-0.409-1.562-3.126-1.562c-2.384,0-3.947,0.513-5.844,2.153
					c-0.847,0.743-1.769,1.767-2.434,2.947c-0.641,1.153-0.692,1.23-2.256,1.23h-1.717v-3.767c0-0.742,0.231-1,1.564-1h1.306
					c0.077-0.742,0-1.152-0.743-1.152h-8.073c-0.052,0.28-0.077,0.666,0,0.999c2.23,0.153,2.742,0.411,2.742,1.973v11.84
					C356.834,735.163,356.475,735.316,355.424,735.316z M361.266,726.757c2.538,0,4.589,0.409,4.589,3.869
					c0,3.46-2.052,4.537-4.947,4.537h-0.872v-8.406H361.266"/>
			</g>
		</g>
	</g>
</g>
</svg>
