<?xml version="1.0" encoding="utf-8"?>
<!-- Generator: Adobe Illustrator 16.0.3, SVG Export Plug-In . SVG Version: 6.00 Build 0)  -->
<!DOCTYPE svg PUBLIC "-//W3C//DTD SVG 1.1//EN" "http://www.w3.org/Graphics/SVG/1.1/DTD/svg11.dtd">
<svg version="1.1" id="svg2" xmlns:svg="http://www.w3.org/2000/svg"
	 xmlns="http://www.w3.org/2000/svg" xmlns:xlink="http://www.w3.org/1999/xlink" x="0px" y="0px" width="1093.465px"
	 height="243.426px" viewBox="0 0 1093.465 243.426" enable-background="new 0 0 1093.465 243.426" xml:space="preserve">
<g id="layer1" transform="translate(-1928.0808,-42.089409)">
	<g id="g9325" transform="translate(35.391103,35.357914)">
		<path id="path9179" d="M2093.928,42.09c-10.207,0.062-17.114,3.097-24.062,10.406c-6.386,7.024-8.636,13.188-8.469,22.75v13.688
			h-93c-21.957-0.098-40.563,15.372-40.312,38.344c-0.25,22.103,18.355,39.003,40.312,39.031h40.312
			c4.954-0.723,9.694,3.604,9.75,8.469c-0.487,4.892-4.97,7.851-9.75,7.781h-80.625c-0.25,14.695,14.375,31.052,40.312,31.219
			c15.655-0.167,23.97-0.167,40.312,0c22.075,0.549,40.684-17.665,40.344-39.656c-0.063-21.93-18.492-38.823-40.344-39.031h-40.312
			c-5.281,0.208-8.775-3.317-8.469-7.812c-0.23-4.76,3.188-8.326,8.469-8.438h93v63.719c-0.167,15.557,4.197,28.308,18.219,31.219
			c8.295,1.557,22.408,2.554,31.219-6.5v-24.719c-2.592,4.294-8.269,5.425-12.375,2.625c-3.148-1.8-4.51-4.248-4.531-7.812V118.84
			h28.531c-6.125,9.458-9.654,20.583-9.688,32.5c0.097,34.331,29.768,62.271,66.344,62.438
			c36.625-0.167,66.302-28.106,66.344-62.438c-0.042-34.596-29.719-62.504-66.344-62.406h-85.188V42.09z M2178.459,118.84
			c18.83,0.111,34.239,14.372,34.469,31.875c-0.229,17.677-15.639,31.913-34.469,31.844c-19.198,0.069-34.608-14.167-34.469-31.844
			C2143.851,133.212,2159.261,118.951,2178.459,118.84z"/>
		<path id="path9193" d="M2950.763,213.788h-633.73V88.92h633.73V213.788z"/>
	</g>
</g>
</svg>
