<?xml version="1.0" encoding="utf-8"?>
<!-- Generator: Adobe Illustrator 16.0.3, SVG Export Plug-In . SVG Version: 6.00 Build 0)  -->
<!DOCTYPE svg PUBLIC "-//W3C//DTD SVG 1.1//EN" "http://www.w3.org/Graphics/SVG/1.1/DTD/svg11.dtd">
<svg version="1.1"
	 id="svg2990" xmlns:cc="http://creativecommons.org/ns#" xmlns:dc="http://purl.org/dc/elements/1.1/" xmlns:rdf="http://www.w3.org/1999/02/22-rdf-syntax-ns#"
	 xmlns="http://www.w3.org/2000/svg" xmlns:xlink="http://www.w3.org/1999/xlink" x="0px" y="0px" width="300px" height="82px"
	 viewBox="0 0 300 82" enable-background="new 0 0 300 82" xml:space="preserve">
<path id="path3249" d="M36.743,81.242c-15.812-0.197-28.75-0.748-28.75-1.223c0-1.459,110.83-2.431,199.42-1.75
	c46.153,0.355,84.142,0.87,84.417,1.145c0.275,0.275,0.231,0.769-0.096,1.097C291.059,81.187,80.734,81.79,36.743,81.242
	L36.743,81.242z M32.993,63.309c0-0.42,0.856-1.693,1.904-2.829s5.355-10.839,9.573-21.564C53.215,16.68,55.493,12.334,60.742,7.877
	l3.751-3.185l-9.502,0.568c-10.862,0.65-17.26,2.574-21.24,6.387c-3.027,2.9-4.887,8.059-4.054,11.244
	c0.733,2.805-1.265,2.554-4.368-0.549c-3.675-3.675-2.754-8.66,2.512-13.603c6.587-6.183,11.074-7.037,40.652-7.735
	c14.3-0.338,26.152-0.532,26.337-0.431s-0.918,1.006-2.453,2.013C90.29,3.955,87.187,4.5,80.041,4.752
	c-8.634,0.305-9.807,0.583-12.259,2.9c-2.814,2.66-8.489,15.359-15.758,35.264c-4.133,11.315-7.453,17.104-10.821,18.867
	C38.626,63.133,32.993,64.18,32.993,63.309L32.993,63.309z M117.993,63.428c0-0.387,0.827-1.898,1.837-3.358
	c1.011-1.46,2.088-3.329,2.395-4.154c0.306-0.825,1.494-3.851,2.638-6.725l2.081-5.225l-4.499,3.435
	c-7.687,5.867-15.929,7.129-19.997,3.061c-4.289-4.289-2.6-13.665,4.114-22.833c7.531-10.286,21.432-14.086,21.432-5.858
	c0,3.775-5.656,10.193-12.953,14.696c-6.088,3.758-7.889,7.008-5.919,10.688c1.195,2.234,3.34,2.197,8.372-0.145
	c6.258-2.911,12.005-9.632,14.932-17.463c1.413-3.778,2.568-7.009,2.568-7.181c0-0.171-1.013-0.5-2.25-0.732
	c-2.082-0.389-2.015-0.52,0.889-1.747c1.727-0.729,3.927-2.709,4.89-4.398c5.391-9.464,12.562-13.731,24.145-14.367
	c7.74-0.425,8.312-0.312,10.75,2.127c1.417,1.417,2.576,3.081,2.576,3.699c0,1.54-5.549,6.968-7.123,6.968
	c-0.993,0-1.01-0.267-0.076-1.2c0.659-0.66,1.199-2.449,1.199-3.977c0-6.05-9.232-7.642-16.072-2.772
	c-2.836,2.02-8.928,10.242-8.928,12.05c0,0.39,4.5,0.462,10,0.159c10.613-0.585,12.647,0.32,7.132,3.172
	c-8.071,4.173-15.814,26.471-9.505,27.372c4.779,0.682,13.373-14.601,13.373-23.78c0-2.659,0.344-2.845,9-4.863
	c10.904-2.543,12.413-2.19,11.711,2.739c-0.282,1.98-0.852,4.442-1.266,5.471c-0.413,1.029,1.359-0.386,3.94-3.144
	c5.23-5.592,9.359-7.759,13.028-6.838c4.842,1.215,4.391,3.843-3.802,22.111c-2.28,5.086-3.592,9.548-3.6,12.25
	c-0.015,4.902-1.072,5.281-4.679,1.674c-3.464-3.463-2.879-8.098,2.533-20.055c2.273-5.023,4.133-9.635,4.133-10.25
	c0-4.559-10.078,7.082-16.5,19.057c-4.592,8.564-5.265,9.351-8.25,9.639c-1.787,0.172-3.25-0.021-3.25-0.432
	c0-0.409,2.25-6.518,5-13.575c5.914-15.175,6.186-17.129,2.25-16.188c-3.9,0.932-4.25,1.235-4.25,3.689
	c-0.002,2.81-5.146,13.706-8.627,18.271c-5.395,7.071-14.297,10.263-19.15,6.864c-5.073-3.554-1.332-18.462,6.549-26.102
	l3.964-3.841l-5.79,0.334l-5.79,0.335l-4.186,11.665c-5.786,16.124-10.37,25.729-13.133,27.517
	C123.091,63.039,117.992,64.445,117.993,63.428L117.993,63.428z M118.179,30.257c3.748-3.963,5.286-8.223,3.252-9.003
	c-2.835-1.088-8.606,6.077-10.925,13.562l-0.743,2.4l2.865-2.059C114.204,34.024,116.702,31.819,118.179,30.257L118.179,30.257z
	 M87.627,54.842c-2.071-1.629-2.635-2.939-2.635-6.119v-4.046l-3.5,2.67c-7.928,6.046-15.006,7.152-19.164,2.994
	c-2.324-2.323-2.508-3.066-1.901-7.646c1.602-12.074,10.871-23.087,21.25-25.248c2.456-0.511,3.648-0.199,5.211,1.364
	c1.706,1.706,1.862,2.497,0.991,4.998c-1.28,3.671-9.19,11.2-14.745,14.033c-3.792,1.935-4.142,2.444-4.142,6.033
	c0,2.156,0.404,4.171,0.897,4.476c2.386,1.475,7.863-1.069,12.617-5.858c4.136-4.167,6.294-7.849,12.03-20.519
	C101.12,7.431,101.72,6.482,104.85,5.671c1.829-0.474,3.708-0.726,4.176-0.56s-2.449,7.8-6.482,16.963
	c-8.689,19.742-10.826,25.862-10.826,31.01c0,4.404-0.471,4.607-4.092,1.758H87.627z M77.07,31.462
	c4.642-4.399,6.575-8.294,4.932-9.938c-0.753-0.753-1.569-0.75-2.787,0.01c-3.905,2.437-11.357,16.674-7.639,14.593
	C72.343,35.698,74.815,33.598,77.07,31.462L77.07,31.462z M264.541,54.77c-2.291-1.801-2.668-2.76-2.359-6
	c0.203-2.12,0.019-3.855-0.408-3.855c-0.428,0-0.776,0.447-0.776,0.994c0,1.969-8.265,7.006-11.495,7.006
	c-3.492,0-6.505-2.549-6.505-5.503c0-1.731-0.14-1.718-2.25,0.212c-6.241,5.707-14.196,6.936-18.306,2.828l-2.463-2.465
	l-3.631,2.465c-4.212,2.857-9.465,3.207-11.882,0.789c-2.403-2.402-1.466-6.465,4.579-19.838
	c5.146-11.383,5.168-11.413,9.305-12.277c2.281-0.476,4.297-0.756,4.48-0.621c0.184,0.134-2.179,5.841-5.25,12.681
	c-5.779,12.874-6.711,16.729-4.043,16.729c2.37,0,7.46-4.165,7.46-6.104c0-2.987,3.974-11.157,7.548-15.518
	c4.092-4.994,10.58-8.377,16.067-8.377c6.61,0,8.567,4.138,3.749,7.928c-3.219,2.532-4.822,2.666-3.861,0.322
	c2.226-5.422-1.113-6.942-5.695-2.592c-8.504,8.072-12.682,26.918-5.497,24.79c4.884-1.446,9.563-5.735,12.722-11.662
	c6.842-12.836,14.057-18.062,25.128-18.202c3.664-0.046,6.992,0.244,7.396,0.645c0.404,0.401-0.426,3.326-1.844,6.5
	c-4.314,9.654-7.921,21.503-8.07,26.517c-0.078,2.613-0.42,4.752-0.758,4.752c-0.338,0.001-1.842-0.963-3.342-2.143H264.541z
	 M258.295,44.42c3.295-3.393,13.268-22.273,12.285-23.256c-1.166-1.167-6.221,1.148-9.029,4.134
	c-3.934,4.183-8.194,12.062-9.384,17.356C250.703,49.166,253.033,49.838,258.295,44.42L258.295,44.42z M222.244,12.218
	c-1.711-0.644-1.577-4.787,0.202-6.263c2.263-1.878,5.048-0.857,5.048,1.852C227.494,10.328,224.318,12.998,222.244,12.218
	L222.244,12.218z"/>
</svg>
