<?xml version="1.0" encoding="utf-8"?>
<!-- Generator: Adobe Illustrator 16.0.3, SVG Export Plug-In . SVG Version: 6.00 Build 0)  -->
<!DOCTYPE svg PUBLIC "-//W3C//DTD SVG 1.1//EN" "http://www.w3.org/Graphics/SVG/1.1/DTD/svg11.dtd">
<svg version="1.1" id="Ebene_1" xmlns="http://www.w3.org/2000/svg" xmlns:xlink="http://www.w3.org/1999/xlink" x="0px" y="0px"
	 width="40.229px" height="51.725px" viewBox="0 0 40.229 51.725" enable-background="new 0 0 40.229 51.725" xml:space="preserve">
<path d="M32.794,22.704c-0.926-2.776-2.629-4.958-4.891-6.329c-1.33-0.812-2.816-1.342-4.408-1.642h6.08
	c0.627,0.007,1.35-0.228,1.867-0.731c0.523-0.497,0.766-1.195,0.756-1.803V3.408c0.01-0.603-0.232-1.303-0.756-1.801
	c-0.518-0.505-1.24-0.739-1.867-0.732H3.324C2.698,0.868,1.972,1.099,1.456,1.606C0.932,2.105,0.69,2.805,0.698,3.408v23.994
	c-0.008,0.604,0.234,1.303,0.759,1.801c0.517,0.507,1.241,0.739,1.867,0.733h7.433c0.061-0.099,0.119-0.189,0.185-0.299l0.375-0.942
	c0,0,0.072-0.021,0.195-0.054c0.375-0.688,0.695-1.35,0.74-1.604c0.083-0.473,0.261-0.394,0.154-0.627
	c-0.108-0.229-0.533-0.663-0.825-0.825c-0.291-0.157-1.39-1.151-1.503-1.719c-0.089-0.428-0.169-1.229-0.327-1.419
	c-0.172-0.203-0.358-0.71-0.349-1.197c0.014-0.475-0.375-0.935-0.289-0.938c-0.037-0.081-0.023-0.218,0.024-0.355
	c0.053-0.091,0.296-0.484,0.495-0.495c-0.007,0.011-0.017,0.017-0.025,0.023c0,0.001,0,0.003-0.001,0.003
	c0.05-0.004,0.102,0.003,0.153,0.021c0.051,0.027,0.103,0.056,0.152,0.085c0.468,0.308,1.09,0.996,1.025,1.671
	c0.143,0.242,0.171,0.376,0.229,0.603c0.075,0.152,0.102,0.278,0.113,0.399c0.202-0.083,0.479-0.215,0.55-0.479
	c0.071-0.262,0.333-0.427,0.349-0.817c0.018-0.392,0.122-0.62,0.24-0.733c0-0.028,0.001-0.059,0.001-0.09
	c0.193-0.188,0.423-0.452,0.453-0.659c0.023-0.184,0.027-0.681,0.001-1.179c-0.067-0.305-0.122-0.627-0.121-0.722
	c0-0.096-0.046-0.534-0.088-0.969c0,0-0.216-1.94,0.451-2.257c0.001-0.002,0.003-0.002,0.005-0.003
	c0.295-0.105,0.494,0.011,0.606,0.416c0.062,0.228,0.148,0.853,0.113,1.225c-0.021,0.25,0.103,1.165,0.135,1.281
	c0.104,0.363,0.163,0.854,0.197,1.144c0.016,0.124,0.062,0.36,0.108,0.592c0.065,0.036,0.22-0.085,0.23-0.167
	c0.015-0.086-0.002-1.073-0.054-1.27c-0.066-0.243-0.086-1.127-0.06-1.287c0.017-0.094,0.043-0.534,0.073-0.971
	c0,0,0.109-1.951,0.819-2.117c0,0,0,0,0.004,0c0.31-0.04,0.483,0.116,0.53,0.538c0.023,0.237,0.003,0.868-0.092,1.227
	c-0.063,0.24-0.094,1.167-0.082,1.288c0.041,0.375,0.021,0.868,0.005,1.163c-0.013,0.277,0.036,1.129,0.031,1.243
	c-0.005,0.123,0.138,0.203,0.176,0.064c0.042-0.138,0.159-0.899,0.145-1.213c-0.02-0.362,0.078-0.841,0.155-1.142
	c0.078-0.301,0.252-1.841,0.262-2.07c0.009-0.233,0.169-0.955,0.453-1.066c0.313-0.123,0.863,0.012,0.774,0.847
	c-0.093,0.84-0.339,2.319-0.341,2.523c0,0.195,0.019,0.931-0.124,1.39c-0.14,0.46-0.256,1.203-0.229,1.271
	c0.029,0.07,0.241,0.289,0.343,0.252c0.105-0.038,0.105-0.476,0.146-0.724c0.039-0.245,0.287-0.919,0.317-1.129
	c0.033-0.209,0.139-0.783,0.205-0.967c0.062-0.174,0.086-0.902,0.38-1.059c0.295-0.155,0.901-0.166,0.823,0.569
	c-0.08,0.739-0.152,1.03-0.169,1.172c-0.015,0.133-0.143,0.519-0.14,0.64c0,0.121-0.031,0.507-0.181,1.017
	c-0.08,0.273-0.116,0.856-0.201,1.193c-0.032,0.127-0.061,0.265-0.047,0.355c0.009,0.074,0.046,1.567,0.027,1.855
	c-0.045,0.675-0.827,3.037-1.222,3.741c-0.307,0.544-0.383,0.78-0.562,1.05c-0.062,0.096-0.142,0.188-0.198,0.363
	c-0.017,0.05-0.066,0.174-0.133,0.33c0.043-0.002,0.077-0.007,0.13-0.008c0.421,0,0.562,0.077,0.583,0.093
	c0.019,0.02,0.067,0.015,0.192,0.33c0.139,0.353,0.271,1.064,0.268,2.296c0.004,1.228-0.129,1.94-0.259,2.272
	c-0.133,0.337-0.183,0.331-0.201,0.353c-0.021,0.015-0.162,0.091-0.583,0.091c-0.629-0.014-0.731-0.12-0.843-0.199
	c-0.107-0.083-0.277-0.313-0.441-0.771c-0.133-0.37-0.354-0.805-0.798-1.194c-0.444-0.407-1.154-0.665-1.771-0.651
	c-0.148,0-0.288,0.012-0.418,0.03l-9.938,1.281l-0.034,0.002c-1.441,0.215-2.293,1.548-2.23,2.566v0.074l0.007,0.08
	c0.279,3.535,1.991,6.746,4.899,8.953c2.899,2.22,6.896,3.44,11.697,3.439c3.853-0.003,7.291-0.696,10.115-2.286
	c2.826-1.58,4.943-4.109,6.014-7.352c0.633-1.892,1.047-4.109,1.045-6.635C33.784,26.886,33.456,24.615,32.794,22.704L32.794,22.704
	z"/>
</svg>
